<?xml version="1.0" encoding="UTF-8"?>
<svg xmlns="http://www.w3.org/2000/svg" xmlns:xlink="http://www.w3.org/1999/xlink" width="2000" height="2000" viewBox="0 0 2000 2000">
<path fill-rule="evenodd" fill="rgb(95.701599%, 96.875%, 98.046875%)" fill-opacity="1" d="M 0 0.078125 L 1999.921875 0.078125 L 1999.921875 2000 L 0 2000 L 0 0.078125 "/>
<path fill-rule="evenodd" fill="rgb(95.701599%, 96.875%, 98.046875%)" fill-opacity="1" d="M 1908.238281 1915.15625 L 1889.179688 1915.15625 C 1888.300781 1915.15625 1887.589844 1915.871094 1887.589844 1916.746094 L 1887.589844 1935.800781 C 1887.589844 1936.679688 1888.300781 1937.394531 1889.179688 1937.394531 L 1908.238281 1937.394531 C 1909.109375 1937.394531 1909.828125 1936.679688 1909.828125 1935.800781 L 1909.828125 1916.746094 C 1909.828125 1915.871094 1909.109375 1915.15625 1908.238281 1915.15625 "/>
<path fill-rule="evenodd" fill="rgb(95.701599%, 96.875%, 98.046875%)" fill-opacity="1" d="M 1865.28125 1916.171875 L 1847.089844 1916.171875 C 1846.261719 1916.171875 1845.578125 1916.855469 1845.578125 1917.691406 L 1845.578125 1935.875 C 1845.578125 1936.710938 1846.261719 1937.394531 1847.089844 1937.394531 L 1865.28125 1937.394531 C 1866.109375 1937.394531 1866.800781 1936.710938 1866.800781 1935.875 L 1866.800781 1917.691406 C 1866.800781 1916.855469 1866.109375 1916.171875 1865.28125 1916.171875 "/>
<path fill-rule="evenodd" fill="rgb(95.701599%, 96.875%, 98.046875%)" fill-opacity="1" d="M 1822.320312 1917.1875 L 1805.011719 1917.1875 C 1804.210938 1917.1875 1803.558594 1917.839844 1803.558594 1918.636719 L 1803.558594 1935.949219 C 1803.558594 1936.742188 1804.210938 1937.394531 1805.011719 1937.394531 L 1822.320312 1937.394531 C 1823.121094 1937.394531 1823.769531 1936.742188 1823.769531 1935.949219 L 1823.769531 1918.636719 C 1823.769531 1917.839844 1823.121094 1917.1875 1822.320312 1917.1875 "/>
<path fill-rule="evenodd" fill="rgb(95.701599%, 96.875%, 98.046875%)" fill-opacity="1" d="M 1779.371094 1918.207031 L 1762.929688 1918.207031 C 1762.171875 1918.207031 1761.550781 1918.824219 1761.550781 1919.582031 L 1761.550781 1936.019531 C 1761.550781 1936.777344 1762.171875 1937.394531 1762.929688 1937.394531 L 1779.371094 1937.394531 C 1780.121094 1937.394531 1780.738281 1936.777344 1780.738281 1936.019531 L 1780.738281 1919.582031 C 1780.738281 1918.824219 1780.121094 1918.207031 1779.371094 1918.207031 "/>
<path fill-rule="evenodd" fill="rgb(95.701599%, 96.875%, 98.046875%)" fill-opacity="1" d="M 1736.410156 1919.222656 L 1720.839844 1919.222656 C 1720.128906 1919.222656 1719.539062 1919.808594 1719.539062 1920.523438 L 1719.539062 1936.09375 C 1719.539062 1936.808594 1720.128906 1937.394531 1720.839844 1937.394531 L 1736.410156 1937.394531 C 1737.128906 1937.394531 1737.710938 1936.808594 1737.710938 1936.09375 L 1737.710938 1920.523438 C 1737.710938 1919.808594 1737.128906 1919.222656 1736.410156 1919.222656 "/>
<path fill-rule="evenodd" fill="rgb(95.701599%, 96.875%, 98.046875%)" fill-opacity="1" d="M 1693.460938 1920.238281 L 1678.761719 1920.238281 C 1678.078125 1920.238281 1677.53125 1920.792969 1677.53125 1921.46875 L 1677.53125 1936.167969 C 1677.53125 1936.84375 1678.078125 1937.394531 1678.761719 1937.394531 L 1693.460938 1937.394531 C 1694.128906 1937.394531 1694.679688 1936.84375 1694.679688 1936.167969 L 1694.679688 1921.46875 C 1694.679688 1920.792969 1694.128906 1920.238281 1693.460938 1920.238281 "/>
<path fill-rule="evenodd" fill="rgb(95.701599%, 96.875%, 98.046875%)" fill-opacity="1" d="M 1650.5 1921.257812 L 1636.671875 1921.257812 C 1636.039062 1921.257812 1635.519531 1921.777344 1635.519531 1922.414062 L 1635.519531 1936.238281 C 1635.519531 1936.875 1636.039062 1937.394531 1636.671875 1937.394531 L 1650.5 1937.394531 C 1651.140625 1937.394531 1651.648438 1936.875 1651.648438 1936.238281 L 1651.648438 1922.414062 C 1651.648438 1921.777344 1651.140625 1921.257812 1650.5 1921.257812 "/>
<path fill-rule="evenodd" fill="rgb(95.701599%, 96.875%, 98.046875%)" fill-opacity="1" d="M 1607.539062 1922.273438 L 1594.589844 1922.273438 C 1593.988281 1922.273438 1593.511719 1922.761719 1593.511719 1923.355469 L 1593.511719 1936.3125 C 1593.511719 1936.90625 1593.988281 1937.394531 1594.589844 1937.394531 L 1607.539062 1937.394531 C 1608.140625 1937.394531 1608.628906 1936.90625 1608.628906 1936.3125 L 1608.628906 1923.355469 C 1608.628906 1922.761719 1608.140625 1922.273438 1607.539062 1922.273438 "/>
<path fill-rule="evenodd" fill="rgb(95.701599%, 96.875%, 98.046875%)" fill-opacity="1" d="M 1564.589844 1923.292969 L 1552.5 1923.292969 C 1551.949219 1923.292969 1551.488281 1923.746094 1551.488281 1924.300781 L 1551.488281 1936.386719 C 1551.488281 1936.941406 1551.949219 1937.394531 1552.5 1937.394531 L 1564.589844 1937.394531 C 1565.140625 1937.394531 1565.601562 1936.941406 1565.601562 1936.386719 L 1565.601562 1924.300781 C 1565.601562 1923.746094 1565.140625 1923.292969 1564.589844 1923.292969 "/>
<path fill-rule="nonzero" fill="rgb(24.31488%, 27.050781%, 30.589294%)" fill-opacity="1" d="M 1017.128906 774.351562 L 1017.128906 222.699219 C 981.714844 249.050781 952.894531 281.820312 931.664062 324.261719 C 903.355469 380.839844 888.097656 455.230469 888.097656 555.089844 C 888.097656 586.101562 889.886719 616.070312 893.25 644.570312 C 896.453125 671.691406 901.066406 697.53125 906.910156 721.71875 C 928.511719 743.210938 947.238281 765.078125 962.691406 786.75 C 979.957031 780.480469 998.199219 776.25 1017.128906 774.351562 "/>
<path fill-rule="nonzero" fill="rgb(24.31488%, 27.050781%, 30.589294%)" fill-opacity="1" d="M 1147.578125 800.238281 C 1178.691406 728.140625 1192.078125 638.820312 1192.078125 555.089844 C 1192.078125 415.691406 1158.761719 296.769531 1063.050781 223.191406 L 1063.050781 774.351562 C 1093.390625 777.398438 1121.960938 786.429688 1147.578125 800.238281 "/>
<path fill-rule="nonzero" fill="rgb(24.31488%, 27.050781%, 30.589294%)" fill-opacity="1" d="M 1063.050781 1225.730469 L 1063.050781 1776.949219 C 1158.730469 1703.375 1192.078125 1584.367188 1192.078125 1444.992188 C 1192.078125 1413.984375 1190.289062 1384.011719 1186.929688 1355.519531 C 1183.71875 1328.394531 1179.109375 1302.550781 1173.269531 1278.359375 C 1151.671875 1256.875 1132.941406 1235.003906 1117.488281 1213.328125 C 1100.21875 1219.59375 1081.980469 1223.828125 1063.050781 1225.730469 "/>
<path fill-rule="nonzero" fill="rgb(24.31488%, 27.050781%, 30.589294%)" fill-opacity="1" d="M 932.601562 1199.839844 C 901.484375 1271.941406 888.097656 1361.261719 888.097656 1444.992188 C 888.097656 1544.847656 903.355469 1619.242188 931.664062 1675.820312 C 952.894531 1718.257812 981.714844 1751.03125 1017.128906 1777.382812 L 1017.128906 1225.730469 C 986.792969 1222.679688 958.21875 1213.652344 932.601562 1199.839844 "/>
<path fill-rule="nonzero" fill="rgb(24.31488%, 27.050781%, 30.589294%)" fill-opacity="1" d="M 859.925781 983.410156 C 859.523438 989.539062 859.167969 993.488281 859.167969 1000.039062 C 859.167969 1099.964844 940.164062 1180.960938 1040.089844 1180.960938 C 1134.191406 1180.960938 1212.101562 1108.921875 1220.300781 1016.179688 L 1220.289062 1016.175781 C 1229.640625 910.011719 1146.230469 819.121094 1040.089844 819.121094 C 946.164062 819.121094 868.355469 890.890625 859.925781 983.410156 "/>
<path fill-rule="nonzero" fill="rgb(24.31488%, 27.050781%, 30.589294%)" fill-opacity="1" d="M 1449.441406 1402.300781 C 1450.160156 1402.53125 1450.871094 1402.792969 1451.550781 1403.089844 C 1495.980469 1419.597656 1536.671875 1428.039062 1574.089844 1429.894531 C 1621.300781 1432.234375 1663.46875 1424.019531 1701.5 1408.300781 L 1224.121094 1132.683594 C 1206.699219 1156.808594 1184.710938 1177.316406 1159.378906 1193.007812 C 1206.210938 1255.925781 1277.25 1312.53125 1349.429688 1354.207031 L 1349.410156 1354.246094 C 1384.730469 1374.636719 1418.019531 1390.480469 1449.441406 1402.300781 "/>
<path fill-rule="nonzero" fill="rgb(24.31488%, 27.050781%, 30.589294%)" fill-opacity="1" d="M 1230.691406 1552.027344 L 1412.179688 1622.53125 L 1419.011719 1439.5 C 1389.570312 1427.554688 1358.789062 1412.449219 1326.558594 1393.847656 L 1326.5 1393.808594 L 1326.46875 1393.847656 C 1291.230469 1373.496094 1258.730469 1351.34375 1229.570312 1328.222656 C 1240.230469 1400.109375 1241.011719 1481.585938 1230.691406 1552.027344 "/>
<path fill-rule="nonzero" fill="rgb(24.31488%, 27.050781%, 30.589294%)" fill-opacity="1" d="M 462.308594 1173.492188 C 462.035156 1173.753906 461.761719 1174.003906 461.476562 1174.25 C 436.355469 1197.140625 416.308594 1220.359375 400.660156 1244.078125 C 374.554688 1283.640625 360.601562 1324.992188 355.5 1368.890625 L 833.164062 1093.109375 C 821.25 1066.660156 814.257812 1037.515625 813.355469 1006.839844 C 735.570312 1015.941406 650.84375 1049.203125 578.753906 1090.824219 C 531.511719 1118.101562 493.117188 1145.554688 462.308594 1173.492188 "/>
<path fill-rule="nonzero" fill="rgb(24.31488%, 27.050781%, 30.589294%)" fill-opacity="1" d="M 452.828125 877.691406 L 273.28125 1005.796875 L 444.957031 1127.792969 C 504.15625 1077.570312 585.996094 1029.78125 661.125 1000.042969 C 588.5625 971.371094 510.863281 926.429688 452.828125 877.691406 "/>
<path fill-rule="nonzero" fill="rgb(24.31488%, 27.050781%, 30.589294%)" fill-opacity="1" d="M 468.679688 830.859375 C 469.234375 831.308594 469.773438 831.789062 470.289062 832.308594 C 499.660156 858.589844 535.457031 884.308594 578.664062 909.25 C 605.046875 924.488281 631.945312 937.910156 658.820312 949.46875 C 683.984375 960.289062 708.660156 969.21875 732.429688 976.21875 C 761.808594 968.269531 790.132812 962.988281 816.695312 960.449219 C 819.992188 941.730469 825.578125 923.800781 833.164062 906.96875 L 355.875 631.410156 C 366.265625 709.890625 406.703125 774.898438 468.679688 830.859375 "/>
<path fill-rule="nonzero" fill="rgb(24.31488%, 27.050781%, 30.589294%)" fill-opacity="1" d="M 1604.019531 1103.0625 L 1740.898438 1005.796875 L 1595.929688 902.359375 C 1574.449219 918.160156 1550.648438 933.671875 1524.359375 948.859375 L 1524.378906 948.898438 C 1489.101562 969.269531 1453.648438 986.339844 1419.050781 1000.039062 C 1451.910156 1013.019531 1492.339844 1032.230469 1524.359375 1051.226562 L 1524.378906 1051.183594 C 1554.011719 1068.289062 1580.46875 1085.5625 1604.019531 1103.0625 "/>
<path fill-rule="nonzero" fill="rgb(24.31488%, 27.050781%, 30.589294%)" fill-opacity="1" d="M 1589.878906 1149.894531 C 1589.558594 1149.65625 1589.238281 1149.410156 1588.941406 1149.15625 C 1563.898438 1129.550781 1534.890625 1110.144531 1501.429688 1090.824219 L 1501.449219 1090.785156 C 1475.089844 1075.570312 1448.210938 1062.160156 1421.359375 1050.617188 C 1396.191406 1039.796875 1371.519531 1030.867188 1347.75 1023.859375 C 1318.371094 1031.8125 1290.039062 1037.089844 1263.480469 1039.636719 C 1260.191406 1058.351562 1254.601562 1076.277344 1247.011719 1093.109375 L 1724.679688 1368.890625 C 1714.058594 1277.554688 1665.761719 1209.582031 1589.878906 1149.894531 "/>
<path fill-rule="nonzero" fill="rgb(24.31488%, 27.050781%, 30.589294%)" fill-opacity="1" d="M 1580.480469 856.738281 C 1581.148438 856.148438 1581.851562 855.609375 1582.578125 855.109375 C 1625.230469 821.789062 1656.789062 787.429688 1679.339844 752.5 C 1704.941406 712.828125 1718.898438 672.210938 1724.300781 631.410156 L 1247.011719 906.96875 C 1258.929688 933.421875 1265.921875 962.570312 1266.820312 993.238281 C 1344.609375 984.140625 1429.339844 950.871094 1501.429688 909.25 L 1501.449219 909.289062 L 1501.511719 909.25 C 1531.238281 892.089844 1557.449219 874.570312 1580.480469 856.738281 "/>
<path fill-rule="nonzero" fill="rgb(24.31488%, 27.050781%, 30.589294%)" fill-opacity="1" d="M 1418.851562 559.988281 L 1412.179688 381.421875 L 1231.21875 451.71875 C 1241.019531 521.570312 1240.011719 601.429688 1229.539062 671.871094 C 1285.058594 627.78125 1354.578125 586.859375 1418.851562 559.988281 "/>
<path fill-rule="nonzero" fill="rgb(24.31488%, 27.050781%, 30.589294%)" fill-opacity="1" d="M 1451.558594 596.128906 C 1450.929688 596.410156 1450.28125 596.671875 1449.609375 596.890625 C 1418.730469 608.921875 1385.839844 624.878906 1350.570312 645.171875 C 1350.199219 645.410156 1349.820312 645.648438 1349.429688 645.871094 C 1322.851562 661.21875 1297.78125 677.78125 1274.53125 695.140625 C 1252.5 711.570312 1232.421875 728.480469 1214.511719 745.519531 C 1206.699219 775.019531 1197.121094 802.199219 1186.070312 826.421875 C 1200.398438 838.46875 1213.140625 852.199219 1224.121094 867.398438 L 1701.910156 591.539062 C 1619.808594 556.109375 1538.851562 562.519531 1451.558594 596.128906 "/>
<path fill-rule="nonzero" fill="rgb(24.31488%, 27.050781%, 30.589294%)" fill-opacity="1" d="M 849.015625 446.71875 L 657.980469 380.589844 L 657.980469 558.601562 C 723.445312 585.539062 794.425781 627.351562 850.609375 671.871094 C 839.925781 599.808594 839.339844 517.128906 849.015625 446.71875 "/>
<path fill-rule="nonzero" fill="rgb(24.31488%, 27.050781%, 30.589294%)" fill-opacity="1" d="M 657.980469 1440.785156 L 657.980469 1623.363281 L 849.535156 1557.054688 C 839.265625 1485.496094 839.796875 1401.175781 850.636719 1328.210938 C 794.460938 1372.824219 723.695312 1414.546875 657.980469 1440.785156 "/>
<path fill-rule="nonzero" fill="rgb(24.31488%, 27.050781%, 30.589294%)" fill-opacity="1" d="M 625.050781 1404.402344 C 626.363281 1403.769531 627.746094 1403.257812 629.183594 1402.882812 C 661.082031 1390.992188 694.90625 1374.949219 730.835938 1354.207031 C 757.152344 1339.011719 782.203125 1322.441406 805.65625 1304.941406 C 827.675781 1288.503906 847.761719 1271.597656 865.671875 1254.554688 C 873.480469 1225.0625 883.0625 1197.882812 894.109375 1173.664062 C 879.78125 1161.605469 867.035156 1147.882812 856.0625 1132.683594 L 378.679688 1408.300781 C 457.296875 1440.792969 540.089844 1435.28125 625.050781 1404.402344 "/>
<path fill-rule="nonzero" fill="rgb(24.31488%, 27.050781%, 30.589294%)" fill-opacity="1" d="M 920.796875 807.070312 C 874.003906 744.210938 802.804688 687.421875 730.835938 645.871094 C 694.464844 624.871094 660.621094 608.46875 628.894531 596.238281 C 627.496094 595.851562 626.152344 595.339844 624.878906 594.710938 C 582.882812 578.890625 544.609375 570.421875 509.085938 568.300781 C 461.679688 565.46875 418.859375 574.050781 378.308594 591.558594 L 856.0625 867.398438 C 873.484375 843.269531 895.464844 822.769531 920.796875 807.070312 "/>
</svg>
